<?xml version="1.0" encoding="UTF-8"?>
<svg width="31px" height="37px" viewBox="0 0 31 37" version="1.1" xmlns="http://www.w3.org/2000/svg" xmlns:xlink="http://www.w3.org/1999/xlink">
    <title>4DB4FB71-7BB5-499C-BCF0-E04BC1C27773</title>
    <g id="CovPass" stroke="none" stroke-width="1" fill="none" fill-rule="evenodd">
        <g id="Expired" transform="translate(-172.000000, -282.000000)" fill="#FFFFFF" fill-rule="nonzero">
            <g id="Icon/UI/signal_warning_hui" transform="translate(154.000000, 265.000000)">
                <path d="M33.5,53.125 C33.6376174,53.125 33.8127668,53.09311 34.0254481,53.02933 C34.2381295,52.96555 34.4570663,52.8762579 34.6822583,52.7614539 C37.2219243,51.4348296 39.3549936,50.2230094 41.0814661,49.1259931 C42.8079385,48.0289769 44.1872399,46.9479056 45.2193702,45.8827794 C46.2515005,44.8176532 46.999013,43.6696129 47.4619078,42.4386586 C47.9248026,41.2077044 48.15625,39.782221 48.15625,38.1622087 L48.15625,24.6153337 C48.15625,23.6076095 47.9498239,22.8773283 47.5369718,22.4244902 C47.1241197,21.9716521 46.5110969,21.566649 45.6979033,21.2094809 C45.2099872,21.0053849 44.4843683,20.7183748 43.5210467,20.3484507 C42.5577251,19.9785267 41.5255949,19.5894686 40.4246559,19.1812765 C39.3237169,18.7730844 38.2947143,18.3967823 37.337648,18.0523702 C36.3805818,17.7079582 35.6580906,17.4528381 35.1701745,17.2870101 C34.9074504,17.197718 34.6322156,17.12756 34.3444702,17.076536 C34.0567248,17.025512 33.7752347,17 33.5,17 C33.2122546,17 32.9245092,17.028701 32.6367638,17.086103 C32.3490184,17.143505 32.0737836,17.210474 31.8110595,17.2870101 C31.3106327,17.4528381 30.5850139,17.7079582 29.6342029,18.0523702 C28.683392,18.3967823 27.6575171,18.7730844 26.5565781,19.1812765 C25.4556391,19.5894686 24.4235089,19.9785267 23.4601873,20.3484507 C22.4968657,20.7183748 21.7649915,21.0053849 21.2645647,21.2094809 C20.4513711,21.553893 19.8446036,21.9557071 19.4442622,22.4149232 C19.0439207,22.8741393 18.84375,23.6076095 18.84375,24.6153337 L18.84375,38.1622087 C18.84375,39.782221 19.0751974,41.1981374 19.5380922,42.4099576 C20.000987,43.6217779 20.7578825,44.7474951 21.8087788,45.7871094 C22.8596751,46.8267236 24.2452318,47.8950388 25.9654489,48.9920551 C27.6856661,50.0890713 29.7905863,51.3455376 32.2802097,52.7614539 C32.5054017,52.8890139 32.7243385,52.981495 32.9370198,53.038897 C33.1497012,53.096299 33.3373613,53.125 33.5,53.125 Z M39.2984678,42.5885417 C38.8953024,42.5885417 38.5336393,42.4359455 38.2134785,42.1307532 L33.5,37.2598844 L28.7687348,42.1307532 C28.4722896,42.4359455 28.1046976,42.5885417 27.6659587,42.5885417 C27.2627933,42.5885417 26.912988,42.4389974 26.6165428,42.139909 C26.3200976,41.8408206 26.171875,41.4715379 26.171875,41.032061 C26.171875,40.6169995 26.3200976,40.2568726 26.6165428,39.9516804 L31.3655947,35.0625 L26.6165428,30.1916312 C26.3200976,29.8864389 26.171875,29.5202082 26.171875,29.092939 C26.171875,28.6534621 26.3200976,28.2902833 26.6165428,28.0034025 C26.912988,27.7165218 27.2627933,27.5730814 27.6659587,27.5730814 C28.1046976,27.5730814 28.4604318,27.7195737 28.7331614,28.0125583 L33.5,32.9017386 L38.2668386,27.9942468 C38.5632838,27.6890545 38.919018,27.5364583 39.3340413,27.5364583 C39.7490645,27.5364583 40.1018343,27.6860026 40.3923506,27.985091 C40.6828669,28.2841794 40.828125,28.6473582 40.828125,29.0746274 C40.828125,29.4896889 40.6799024,29.8559197 40.3834572,30.1733196 L35.6344053,35.0625 L40.3656705,39.9333688 C40.6621157,40.2507688 40.8103383,40.6169995 40.8103383,41.032061 C40.8103383,41.4715379 40.6680446,41.8408206 40.3834572,42.139909 C40.0988698,42.4389974 39.7372067,42.5885417 39.2984678,42.5885417 Z" id="􀞞-copy"></path>
            </g>
        </g>
    </g>
</svg>