<svg width="24" height="24" viewBox="0 0 24 24" fill="none" xmlns="http://www.w3.org/2000/svg">
<path fill-rule="evenodd" clip-rule="evenodd" d="M12.3559 23.9364C12.2119 23.9788 12.0932 24 12 24C11.8898 24 11.7627 23.9809 11.6186 23.9428C11.4746 23.9047 11.3263 23.8432 11.1737 23.7585C9.48728 22.8178 8.06143 21.9831 6.89617 21.2542C5.73092 20.5254 4.79236 19.8157 4.0805 19.125C3.36863 18.4343 2.85592 17.6864 2.54236 16.8814C2.2288 16.0763 2.07202 15.1356 2.07202 14.0593V5.05932C2.07202 4.38983 2.20761 3.90254 2.4788 3.59746C2.74999 3.29237 3.161 3.02542 3.71185 2.79661C4.05084 2.66102 4.5466 2.47034 5.19914 2.22458C5.85168 1.97881 6.55084 1.72034 7.2966 1.44915C8.04236 1.17797 8.73728 0.927966 9.38134 0.699153C10.0254 0.470339 10.5169 0.300847 10.8559 0.190678C11.0339 0.13983 11.2203 0.095339 11.4152 0.0572034C11.6102 0.0190678 11.8051 0 12 0C12.1864 0 12.3771 0.0169492 12.572 0.0508475C12.7669 0.0847458 12.9534 0.131356 13.1313 0.190678C13.4619 0.300847 13.9513 0.470339 14.5996 0.699153C15.2479 0.927966 15.9449 1.17797 16.6907 1.44915C17.4364 1.72034 18.1356 1.97881 18.7881 2.22458C19.4407 2.47034 19.9322 2.66102 20.2627 2.79661C20.8135 3.0339 21.2288 3.30297 21.5085 3.60381C21.7881 3.90466 21.928 4.38983 21.928 5.05932V14.0593C21.928 15.1356 21.7712 16.0826 21.4576 16.9004C21.1441 17.7182 20.6377 18.4809 19.9385 19.1886C19.2394 19.8962 18.3051 20.6144 17.1356 21.3432C15.9661 22.072 14.5212 22.8771 12.8008 23.7585C12.6483 23.8347 12.5 23.8941 12.3559 23.9364ZM15.3686 16.4237C15.5974 16.6356 15.8559 16.7415 16.1441 16.7415C16.4576 16.7415 16.7161 16.6377 16.9195 16.4301C17.1229 16.2225 17.2246 15.9661 17.2246 15.661C17.2246 15.3729 17.1186 15.1186 16.9068 14.8983L13.5254 11.5169L16.9195 8.12288C17.1313 7.90254 17.2373 7.6483 17.2373 7.36017C17.2373 7.06356 17.1335 6.81144 16.9258 6.60381C16.7182 6.39619 16.4661 6.29237 16.1695 6.29237C15.8729 6.29237 15.6186 6.3983 15.4068 6.61017L12 10.0169L8.59321 6.62288C8.39829 6.41949 8.14406 6.3178 7.8305 6.3178C7.54236 6.3178 7.29236 6.41737 7.0805 6.61653C6.86863 6.81568 6.7627 7.0678 6.7627 7.37288C6.7627 7.66949 6.86863 7.92373 7.0805 8.13559L10.4746 11.5169L7.0805 14.911C6.86863 15.1229 6.7627 15.3729 6.7627 15.661C6.7627 15.9661 6.86863 16.2225 7.0805 16.4301C7.29236 16.6377 7.54236 16.7415 7.8305 16.7415C8.14406 16.7415 8.40677 16.6356 8.61863 16.4237L12 13.0424L15.3686 16.4237Z" fill="#556877"/>
</svg>
